<svg width="128" height="128" viewBox="0 0 20 20" fill="none" xmlns="http://www.w3.org/2000/svg">
<g clip-path="url(#clip0_2_2)">
<path d="M10 19C14.9706 19 19 14.9706 19 10C19 5.02944 14.9706 1 10 1C5.02944 1 1 5.02944 1 10C1 14.9706 5.02944 19 10 19Z" stroke="#4B5563" stroke-width="2"/>
<path d="M10 19V10" stroke="#4B5563" stroke-width="2"/>
<path d="M19 10H1" stroke="#4B5563" stroke-width="2"/>
<mask id="path-4-inside-1_2_2" fill="white">
<path d="M14 9C13.3434 9 12.6932 9.12933 12.0866 9.3806C11.48 9.63188 10.9288 10.0002 10.4645 10.4645C10.0002 10.9288 9.63188 11.48 9.3806 12.0866C9.12933 12.6932 9 13.3434 9 14L10.9501 14C10.9501 13.5995 11.029 13.2029 11.1823 12.8329C11.3356 12.4628 11.5602 12.1266 11.8434 11.8434C12.1266 11.5602 12.4628 11.3356 12.8329 11.1823C13.2029 11.029 13.5995 10.9501 14 10.9501L14 9Z"/>
</mask>
<path d="M14 9C13.3434 9 12.6932 9.12933 12.0866 9.3806C11.48 9.63188 10.9288 10.0002 10.4645 10.4645C10.0002 10.9288 9.63188 11.48 9.3806 12.0866C9.12933 12.6932 9 13.3434 9 14L10.9501 14C10.9501 13.5995 11.029 13.2029 11.1823 12.8329C11.3356 12.4628 11.5602 12.1266 11.8434 11.8434C12.1266 11.5602 12.4628 11.3356 12.8329 11.1823C13.2029 11.029 13.5995 10.9501 14 10.9501L14 9Z" stroke="#4B5563" stroke-width="4" mask="url(#path-4-inside-1_2_2)"/>
<mask id="path-5-inside-2_2_2" fill="white">
<path d="M11 14C11 13.3434 10.8707 12.6932 10.6194 12.0866C10.3681 11.48 9.99983 10.9288 9.53553 10.4645C9.07124 10.0002 8.52004 9.63188 7.91342 9.3806C7.30679 9.12933 6.65661 9 6 9L6 10.9501C6.40051 10.9501 6.79711 11.029 7.16713 11.1823C7.53716 11.3356 7.87337 11.5602 8.15658 11.8434C8.43978 12.1266 8.66444 12.4628 8.81771 12.8329C8.97098 13.2029 9.04986 13.5995 9.04986 14H11Z"/>
</mask>
<path d="M11 14C11 13.3434 10.8707 12.6932 10.6194 12.0866C10.3681 11.48 9.99983 10.9288 9.53553 10.4645C9.07124 10.0002 8.52004 9.63188 7.91342 9.3806C7.30679 9.12933 6.65661 9 6 9L6 10.9501C6.40051 10.9501 6.79711 11.029 7.16713 11.1823C7.53716 11.3356 7.87337 11.5602 8.15658 11.8434C8.43978 12.1266 8.66444 12.4628 8.81771 12.8329C8.97098 13.2029 9.04986 13.5995 9.04986 14H11Z" stroke="#4B5563" stroke-width="4" mask="url(#path-5-inside-2_2_2)"/>
<path d="M11.1163 1.0695C10.3728 0.976557 9.62053 0.976836 8.87706 1.07033" stroke="#0EA5E9" stroke-width="2"/>
</g>
<defs>
<clipPath id="clip0_2_2">
<rect width="20" height="20" fill="white"/>
</clipPath>
</defs>
</svg>
